<?xml version="1.0" encoding="UTF-8"?>
<!DOCTYPE svg PUBLIC "-//W3C//DTD SVG 1.1//EN" "http://www.w3.org/Graphics/SVG/1.1/DTD/svg11.dtd">
<!-- Creator: CorelDRAW 2020 (64 Bit) -->
<svg xmlns="http://www.w3.org/2000/svg" xml:space="preserve" width="973px" height="973px" version="1.1" style="shape-rendering:geometricPrecision; text-rendering:geometricPrecision; image-rendering:optimizeQuality; fill-rule:evenodd; clip-rule:evenodd"
viewBox="0 0 163.9 163.9"
 xmlns:xlink="http://www.w3.org/1999/xlink"
 xmlns:xodm="http://www.corel.com/coreldraw/odm/2003">
 <defs>
  <style type="text/css">
   <![CDATA[
    .str0 {stroke:white;stroke-width:5.97;stroke-miterlimit:22.9256}
    .fil0 {fill:none}
    .fil1 {fill:white;fill-rule:nonzero}
   ]]>
  </style>
 </defs>
 <g id="Camada_x0020_1">
  <metadata id="CorelCorpID_0Corel-Layer"/>
  <circle class="fil0 str0" cx="81.95" cy="81.95" r="78.96"/>
 </g>
 <g id="__x0023_Layer_x0020_1">
  <metadata id="CorelCorpID_1Corel-Layer"/>
  <g id="_2373470677232">
   <path class="fil1" d="M116.2 35.24l0.65 0c1.18,0.1 2.37,0.34 3.43,0.9 1.5,0.72 2.61,2.01 3.78,3.16 1.02,1.05 2.13,2.02 3.02,3.19 1,1.35 1.5,3.01 1.58,4.67l0 0.38c-0.11,1.67 -0.62,3.34 -1.65,4.67 -1.04,1.33 -2.33,2.45 -3.51,3.67 -5.16,-5.16 -10.32,-10.32 -15.48,-15.48 1.22,-1.18 2.34,-2.47 3.67,-3.51 1.29,-1.01 2.9,-1.5 4.51,-1.65z"/>
   <path class="fil1" d="M44.93 37.18c4.03,-1.99 8.82,-2.52 13.14,-1.17 1.97,0.52 3.76,1.52 5.45,2.65 -2.85,2.85 -5.7,5.71 -8.56,8.55 -3.35,-3.34 -6.69,-6.68 -10.03,-10.03z"/>
   <path class="fil1" d="M51.09 58.83c5.44,-5.43 10.86,-10.87 16.3,-16.3 2.64,3.61 3.83,8.22 3.29,12.66 2.46,2.48 4.93,4.93 7.4,7.41 -5.16,5.16 -10.32,10.32 -15.49,15.48 -2.47,-2.47 -4.93,-4.95 -7.41,-7.4 -5.22,0.64 -10.68,-1.15 -14.45,-4.82 -3.36,-3.15 -5.32,-7.67 -5.49,-12.26l0 -1.13c0.11,-2.61 0.76,-5.2 1.94,-7.54 4.64,4.63 9.27,9.27 13.91,13.9z"/>
   <path class="fil1" d="M100.28 48.14c1.28,-1.3 2.58,-2.58 3.87,-3.87 5.16,5.16 10.32,10.32 15.48,15.48 -1.29,1.29 -2.58,2.58 -3.87,3.87 -5.16,-5.16 -10.32,-10.32 -15.48,-15.48z"/>
   <path class="fil1" d="M96.39 52.01c1.85,1.79 3.64,3.65 5.49,5.46 0.08,0.13 0.44,0.3 0.21,0.46 -17.06,17.09 -34.16,34.14 -51.21,51.23 -1.98,-1.87 -3.85,-3.87 -5.82,-5.76 2.55,-2.66 5.21,-5.22 7.8,-7.85 14.51,-14.51 29.03,-29.01 43.53,-43.54z"/>
   <path class="fil1" d="M106.06 61.69c1.97,1.91 3.86,3.88 5.82,5.78 -15.67,15.74 -31.41,31.42 -47.1,47.14 -1.44,1.4 -2.81,2.87 -4.28,4.23 -1.91,-1.94 -3.83,-3.86 -5.77,-5.76 1.89,-1.99 3.88,-3.89 5.8,-5.84 15.18,-15.19 30.37,-30.35 45.53,-45.55z"/>
   <path class="fil1" d="M85.82 101.3c5.16,-5.16 10.32,-10.32 15.48,-15.48 2.47,2.47 4.93,4.94 7.41,7.4 3.06,-0.34 6.21,0.06 9.05,1.27 3.4,1.42 6.33,3.94 8.27,7.07 1.65,2.67 2.53,5.78 2.63,8.91l0 0.96c-0.11,2.61 -0.76,5.2 -1.94,7.54 -4.64,-4.63 -9.27,-9.27 -13.91,-13.9 -5.44,5.43 -10.87,10.87 -16.3,16.3 -2.64,-3.61 -3.84,-8.22 -3.29,-12.65 -2.46,-2.48 -4.94,-4.94 -7.4,-7.42z"/>
   <path class="fil1" d="M41.17 107.27c2.49,2.41 4.91,4.9 7.38,7.34 2.69,2.71 5.42,5.38 8.09,8.12 -7.14,1.97 -14.27,3.96 -21.4,5.93 1.97,-7.13 3.95,-14.26 5.93,-21.39z"/>
   <path class="fil1" d="M100.38 125.24c2.85,-2.85 5.7,-5.7 8.56,-8.56 3.35,3.35 6.69,6.69 10.03,10.04 -2.55,1.21 -5.36,1.98 -8.2,1.9 -3.72,0.04 -7.37,-1.25 -10.39,-3.38z"/>
  </g>
 </g>
</svg>
