<?xml version="1.0" encoding="UTF-8"?>
<!DOCTYPE svg PUBLIC "-//W3C//DTD SVG 1.1//EN" "http://www.w3.org/Graphics/SVG/1.1/DTD/svg11.dtd">
<!-- Creator: CorelDRAW 2020 (64 Bit) -->
<svg xmlns="http://www.w3.org/2000/svg" xml:space="preserve" width="973px" height="973px" version="1.1" style="shape-rendering:geometricPrecision; text-rendering:geometricPrecision; image-rendering:optimizeQuality; fill-rule:evenodd; clip-rule:evenodd"
viewBox="0 0 42.19 42.19"
 xmlns:xlink="http://www.w3.org/1999/xlink"
 xmlns:xodm="http://www.corel.com/coreldraw/odm/2003">
 <defs>
  <style type="text/css">
   <![CDATA[
    .str0 {stroke:white;stroke-width:1.54;stroke-miterlimit:22.9256}
    .fil0 {fill:none}
   ]]>
  </style>
 </defs>
 <g id="Camada_x0020_1">
  <metadata id="CorelCorpID_0Corel-Layer"/>
  <circle class="fil0 str0" cx="21.09" cy="21.09" r="20.32"/>
  <path class="fil0 str0" d="M24.75 15.13c0.15,-0.12 0.32,-0.34 0.45,-0.47 0.13,-0.13 0.32,-0.29 0.45,-0.43l0.19 -0.4 0.35 -0.17c0.36,-0.29 0.76,-0.72 1.07,-1.04 0.43,-0.43 0.84,-0.86 1.27,-1.29 0.68,-0.7 1.49,-1.28 2.52,-1.16 1.17,0.13 1.93,1.15 2.71,1.93 0.64,0.65 1.42,1.22 1.62,2.19 0.12,0.58 0.03,1.16 -0.23,1.68 -0.31,0.61 -0.67,0.86 -1.12,1.32l-13.12 13.12c-0.7,0.7 -1.31,1.49 -2.4,1.61 -1.32,0.14 -2.04,-0.65 -2.87,-1.51 -0.85,-0.89 -1.75,-1.73 -2.6,-2.62l-2.59 -2.61c-0.9,-0.85 -1.74,-1.76 -2.62,-2.63 -0.66,-0.64 -1.16,-1.43 -1.06,-2.39 0.13,-1.25 1.24,-2.06 2.07,-2.88 0.26,-0.27 0.47,-0.53 0.77,-0.77 0.55,-0.48 1.23,-0.79 1.98,-0.75 1.16,0.07 1.75,0.86 2.49,1.59l4.16 4.17c1,-1 2.01,-1.99 3,-2.98 0.68,-0.67 1.35,-1.34 2.01,-2.02 0.3,-0.3 0.66,-0.64 0.95,-0.97l0.12 -0.29 0.43 -0.23z"/>
 </g>
</svg>
