<?xml version="1.0" encoding="UTF-8"?>
<!DOCTYPE svg PUBLIC "-//W3C//DTD SVG 1.1//EN" "http://www.w3.org/Graphics/SVG/1.1/DTD/svg11.dtd">
<!-- Creator: CorelDRAW 2020 (64 Bit) -->
<svg xmlns="http://www.w3.org/2000/svg" xml:space="preserve" width="973px" height="973px" version="1.1" style="shape-rendering:geometricPrecision; text-rendering:geometricPrecision; image-rendering:optimizeQuality; fill-rule:evenodd; clip-rule:evenodd"
viewBox="0 0 54.5 54.5"
 xmlns:xlink="http://www.w3.org/1999/xlink"
 xmlns:xodm="http://www.corel.com/coreldraw/odm/2003">
 <defs>
  <style type="text/css">
   <![CDATA[
    .str0 {stroke:white;stroke-width:1.98;stroke-miterlimit:22.9256}
    .fil0 {fill:none}
    .fil1 {fill:white}
   ]]>
  </style>
 </defs>
 <g id="Camada_x0020_1">
  <metadata id="CorelCorpID_0Corel-Layer"/>
  <circle class="fil0 str0" cx="27.25" cy="27.25" r="26.26"/>
  <path class="fil1" d="M41.45 38.86c-1.34,2.69 -8.47,1.56 -11.85,1.56 -22.28,0 -19.09,1.73 -8.95,-17.3 7.6,-14.27 7.18,-10.95 17.04,6.38 1.26,2.21 4.96,6.96 3.76,9.36zm-16.07 -26.43c-2.77,1.24 -4.42,5.38 -6.63,9.23 -1.9,3.3 -3.82,6.79 -5.86,10.26 -7.7,13.1 6.76,10.46 16.71,10.46 4.8,0 11.62,1.04 13.51,-2.32 2.18,-3.86 -1.39,-8.12 -3.17,-11.1 -2.02,-3.4 -3.84,-6.57 -5.7,-10 -1.75,-3.21 -3.84,-8.79 -8.86,-6.53z"/>
  <g id="_2262327821168">
   <rect class="fil1" x="26.19" y="17.95" width="2.13" height="15.9" rx="1.06" ry="2.13"/>
   <circle class="fil1" cx="27.25" cy="35.49" r="1.06"/>
  </g>
 </g>
</svg>
